<svg width="21" height="86" viewBox="0 0 21 86" fill="none" xmlns="http://www.w3.org/2000/svg">
<path d="M5.95733 82.8864L8.88644 80.0427L6.04267 77.1136L3.11356 79.9573L5.95733 82.8864ZM6.20961 65.8217L5.70967 65.8143L6.20961 65.8217ZM11.5528 6.28076L11.1681 6.60017L11.5528 6.28076ZM7.55287 0.680595C7.37647 0.46814 7.06124 0.438911 6.84879 0.615318C6.63633 0.791718 6.6071 1.10695 6.7835 1.3194L7.55287 0.680595ZM12.6612 46.7685L12.2596 46.4707L12.6612 46.7685ZM6.49995 80.0074L6.55235 76.4628L5.55246 76.448L5.50005 79.9926L6.49995 80.0074ZM6.65716 69.3737L6.70956 65.8291L5.70967 65.8143L5.65727 69.3589L6.65716 69.3737ZM6.70956 65.8291C6.722 64.9879 6.76725 64.1498 6.8447 63.3166L5.849 63.2241C5.76914 64.083 5.72249 64.9471 5.70967 65.8143L6.70956 65.8291ZM7.69858 58.3614C8.11155 56.7344 8.65077 55.1419 9.31127 53.5987L8.39194 53.2052C7.71099 54.7962 7.15508 56.438 6.72931 58.1154L7.69858 58.3614ZM11.6437 49.1441C12.0884 48.4353 12.5616 47.7421 13.0628 47.0664L12.2596 46.4707C11.7429 47.1673 11.255 47.8819 10.7966 48.6127L11.6437 49.1441ZM13.0628 47.0664C13.617 46.3193 14.1359 45.5551 14.6195 44.7759L13.7699 44.2485C13.3007 45.0044 12.7973 45.7458 12.2596 46.4707L13.0628 47.0664ZM17.1368 39.8474C17.8418 38.1263 18.396 36.3604 18.8001 34.5691L17.8246 34.3491C17.4327 36.0865 16.8952 37.7992 16.2115 39.4683L17.1368 39.8474ZM19.5649 29.0884C19.6676 27.2437 19.6169 25.3931 19.4135 23.5567L18.4196 23.6668C18.6169 25.4482 18.666 27.2434 18.5665 29.0328L19.5649 29.0884ZM18.3499 18.126C17.8485 16.3596 17.1985 14.6266 16.4004 12.9467L15.4971 13.3758C16.2711 15.0051 16.9016 16.6858 17.3879 18.3991L18.3499 18.126ZM13.6172 8.16327C13.0916 7.41171 12.5317 6.677 11.9375 5.96136L11.1681 6.60017C11.7447 7.29455 12.2879 8.00732 12.7977 8.73635L13.6172 8.16327ZM11.9375 5.96136L10.8413 4.64117L10.072 5.27998L11.1681 6.60017L11.9375 5.96136ZM8.64902 2.00079L7.55287 0.680595L6.7835 1.3194L7.87965 2.6396L8.64902 2.00079ZM5.91465 85.7729L11.7729 80.0853L6.08535 74.2271L0.227128 79.9147L5.91465 85.7729ZM6.20961 65.8217L5.20972 65.8069L6.20961 65.8217ZM11.5528 6.28076L10.7834 6.91956L11.5528 6.28076ZM7.93756 0.361198C7.58475 -0.0637131 6.95429 -0.122169 6.52938 0.230629C6.10447 0.583435 6.04602 1.2139 6.39882 1.6388L7.93756 0.361198ZM12.6612 46.7685L11.8581 46.1728L12.6612 46.7685ZM6.99989 80.0148L7.05229 76.4702L5.05251 76.4406L5.00011 79.9852L6.99989 80.0148ZM7.1571 69.3811L7.20951 65.8365L5.20972 65.8069L5.15732 69.3515L7.1571 69.3811ZM7.20951 65.8365C7.22175 65.0083 7.2663 64.1832 7.34256 63.3629L5.35114 63.1778C5.27009 64.0497 5.22274 64.9267 5.20972 65.8069L7.20951 65.8365ZM8.18321 58.4844C8.58979 56.8826 9.12066 55.3148 9.77094 53.7954L7.93227 53.0085C7.2411 54.6234 6.67684 56.2898 6.24468 57.9923L8.18321 58.4844ZM12.0672 49.4098C12.505 48.712 12.9709 48.0295 13.4644 47.3643L11.8581 46.1728C11.3336 46.8799 10.8384 47.6052 10.373 48.347L12.0672 49.4098ZM13.4644 47.3643C14.0268 46.6061 14.5534 45.8305 15.0443 45.0396L13.3451 43.9848C12.8832 44.729 12.3875 45.459 11.8581 46.1728L13.4644 47.3643ZM17.5995 40.0369C18.3151 38.2898 18.8777 36.4973 19.2878 34.6791L17.3368 34.2391C16.951 35.9495 16.4218 37.6356 15.7488 39.2788L17.5995 40.0369ZM20.0641 29.1162C20.1683 27.2438 20.1169 25.3655 19.9104 23.5017L17.9226 23.7219C18.1169 25.4757 18.1653 27.2432 18.0672 29.0051L20.0641 29.1162ZM18.8309 17.9895C18.3219 16.1965 17.6621 14.4374 16.852 12.7321L15.0455 13.5903C15.8075 15.1943 16.4281 16.8489 16.9069 18.5356L18.8309 17.9895ZM14.0269 7.87672C13.4935 7.11389 12.9252 6.36823 12.3222 5.64196L10.7834 6.91956C11.3511 7.60332 11.886 8.30512 12.3879 9.02289L14.0269 7.87672ZM12.3222 5.64196L11.226 4.32177L9.68727 5.59937L10.7834 6.91956L12.3222 5.64196ZM9.03371 1.68139L7.93756 0.361198L6.39882 1.6388L7.49497 2.95899L9.03371 1.68139Z" fill="#0078FF"/>
</svg>
