<svg xmlns="http://www.w3.org/2000/svg" width="180" height="35" fill="none"><path fill="#0078FF" d="M1.5 4.5a.5.5 0 0 0 0 1v-1Zm30.984.5v.5V5Zm131.561 10.299.334.372-.334-.372Zm13.602-12.23-4.077-.216-.217 4.077 4.077.216.217-4.076ZM74.777 19.156l.302-.399-.301.4ZM1.5 5.5h2.582v-1H1.5v1Zm7.746 0h5.164v-1H9.246v1Zm10.328 0h5.164v-1h-5.164v1Zm10.328 0h2.582v-1h-2.582v1Zm2.582 0c.94 0 1.88.019 2.816.057l.04-1a70.805 70.805 0 0 0-2.856-.057v1Zm8.429.51c1.867.228 3.721.53 5.558.906l.2-.98a70.752 70.752 0 0 0-5.637-.918l-.121.993Zm11.025 2.257a69.789 69.789 0 0 1 5.34 1.787l.355-.934a70.772 70.772 0 0 0-5.417-1.813l-.279.96Zm10.518 4a69.69 69.69 0 0 1 4.983 2.622l.501-.865a70.802 70.802 0 0 0-5.054-2.66l-.43.902Zm9.738 5.638c.771.534 1.532 1.083 2.283 1.65l.602-.799a70.768 70.768 0 0 0-2.315-1.673l-.57.822Zm2.283 1.65a71.519 71.519 0 0 0 2.472 1.782l.568-.823a70.379 70.379 0 0 1-2.438-1.758l-.602.799Zm7.634 5.021a70.557 70.557 0 0 0 5.422 2.783l.417-.909a69.581 69.581 0 0 1-5.344-2.743l-.495.87Zm11.063 5.087a70.518 70.518 0 0 0 5.82 1.807l.255-.967a69.484 69.484 0 0 1-5.737-1.782l-.338.942Zm11.773 3.106a70.83 70.83 0 0 0 6.043.782l.086-.996a69.842 69.842 0 0 1-5.958-.771l-.171.985Zm12.131 1.042c2.032 0 4.064-.088 6.088-.263l-.086-.996a70 70 0 0 1-6.002.259v1Zm12.131-1.047a70.854 70.854 0 0 0 5.953-1.3l-.255-.967c-1.94.512-3.898.94-5.869 1.282l.171.985Zm11.773-3.108a70.475 70.475 0 0 0 5.641-2.302l-.417-.91a69.503 69.503 0 0 1-5.562 2.271l.338.941Zm11.063-5.084c1.757-1 3.479-2.08 5.162-3.24l-.568-.823a69.657 69.657 0 0 1-5.088 3.194l.494.869Zm10.025-6.912a70.443 70.443 0 0 0 2.309-1.99l-.668-.743a71.221 71.221 0 0 1-2.277 1.961l.636.772Zm2.309-1.99 2.864-2.574-.669-.744-2.863 2.575.668.744Zm8.592-7.724 2.863-2.575-.668-.743-2.864 2.575.669.743ZM1.5 4a1 1 0 1 0 0 2V4Zm30.984 1v1-1Zm131.561 10.299.669.743-.669-.743Zm15.748-14.16L171.64.707l-.433 8.154 8.153.433.433-8.153ZM74.778 19.156l.602-.798-.602.798ZM1.5 6h2.582V4H1.5v2Zm7.746 0h5.164V4H9.246v2Zm10.328 0h5.164V4h-5.164v2Zm10.328 0h2.582V4h-2.582v2Zm2.582 0c.934 0 1.866.019 2.796.056l.08-1.998A71.287 71.287 0 0 0 32.485 4v2Zm8.368.507a69.25 69.25 0 0 1 5.519.899l.4-1.96a71.242 71.242 0 0 0-5.677-.924l-.242 1.985Zm10.946 2.24c1.79.52 3.56 1.112 5.302 1.775l.71-1.87a71.272 71.272 0 0 0-5.454-1.826l-.558 1.921Zm10.443 3.97c1.68.8 3.332 1.669 4.948 2.605l1.002-1.731a71.27 71.27 0 0 0-5.09-2.68l-.86 1.807Zm9.669 5.6a69.24 69.24 0 0 1 2.266 1.637l1.204-1.597a71.359 71.359 0 0 0-2.332-1.685l-1.138 1.644Zm2.266 1.637c.82.618 1.65 1.216 2.49 1.795l1.134-1.647a69.745 69.745 0 0 1-2.42-1.745l-1.204 1.597Zm7.688 5.057a71.036 71.036 0 0 0 5.46 2.802l.835-1.817a69.084 69.084 0 0 1-5.306-2.724l-.99 1.739Zm11.141 5.122a70.97 70.97 0 0 0 5.86 1.82l.511-1.933a69.02 69.02 0 0 1-5.695-1.77l-.676 1.883Zm11.857 3.129c2.019.35 4.05.612 6.086.787l.171-1.993a69.3 69.3 0 0 1-5.916-.765l-.341 1.97Zm12.216 1.049c2.047 0 4.092-.089 6.131-.265l-.172-1.992c-1.982.17-3.97.256-5.959.257v2Zm12.217-1.054a71.378 71.378 0 0 0 5.995-1.31l-.51-1.933a69.43 69.43 0 0 1-5.828 1.272l.343 1.97Zm11.855-3.13a71.013 71.013 0 0 0 5.682-2.32l-.835-1.816a68.912 68.912 0 0 1-5.522 2.253l.675 1.883Zm11.143-5.12a71.093 71.093 0 0 0 5.197-3.264l-1.135-1.646a69.076 69.076 0 0 1-5.052 3.17l.99 1.74Zm10.095-6.962a72.283 72.283 0 0 0 2.326-2.003l-1.338-1.487a68.478 68.478 0 0 1-2.261 1.947l1.273 1.543Zm2.326-2.003 2.863-2.574-1.337-1.488-2.864 2.575 1.338 1.487Zm8.591-7.724 2.864-2.575-1.337-1.487-2.864 2.575 1.337 1.487Z"/></svg>