<svg width="197" height="63" viewBox="0 0 197 63" fill="none" xmlns="http://www.w3.org/2000/svg">
<path d="M0.28 29V0.999998H8.04L19.24 19.28H15.16L26.04 0.999998H33.8L33.88 29H25.28L25.2 13.96H26.56L19.12 26.48H14.96L7.2 13.96H8.88V29H0.28ZM47.0841 11.4H59.5641V18.2H47.0841V11.4ZM47.7241 21.88H61.7241V29H38.4441V0.999998H61.2041V8.12H47.7241V21.88ZM65.3581 29V0.999998H73.1181L87.3581 18.04H83.7581V0.999998H92.9581V29H85.1981L70.9581 11.96H74.5581V29H65.3581ZM103.587 29V8.32H95.3866V0.999998H121.227V8.32H113.027V29H103.587ZM137.968 29.64C135.701 29.64 133.594 29.28 131.648 28.56C129.728 27.84 128.061 26.8267 126.648 25.52C125.234 24.1867 124.128 22.6267 123.328 20.84C122.554 19.0533 122.168 17.1067 122.168 15C122.168 12.8667 122.554 10.92 123.328 9.16C124.128 7.37333 125.234 5.82667 126.648 4.52C128.061 3.18666 129.728 2.16 131.648 1.44C133.594 0.719999 135.701 0.359999 137.968 0.359999C140.261 0.359999 142.368 0.719999 144.288 1.44C146.208 2.16 147.874 3.18666 149.288 4.52C150.701 5.82667 151.794 7.37333 152.568 9.16C153.368 10.92 153.768 12.8667 153.768 15C153.768 17.1067 153.368 19.0533 152.568 20.84C151.794 22.6267 150.701 24.1867 149.288 25.52C147.874 26.8267 146.208 27.84 144.288 28.56C142.368 29.28 140.261 29.64 137.968 29.64ZM137.968 22C138.848 22 139.661 21.84 140.408 21.52C141.181 21.2 141.848 20.7467 142.408 20.16C142.994 19.5467 143.448 18.8133 143.768 17.96C144.088 17.08 144.248 16.0933 144.248 15C144.248 13.9067 144.088 12.9333 143.768 12.08C143.448 11.2 142.994 10.4667 142.408 9.88C141.848 9.26667 141.181 8.8 140.408 8.48C139.661 8.16 138.848 8 137.968 8C137.088 8 136.261 8.16 135.488 8.48C134.741 8.8 134.074 9.26667 133.488 9.88C132.928 10.4667 132.488 11.2 132.168 12.08C131.848 12.9333 131.688 13.9067 131.688 15C131.688 16.0933 131.848 17.08 132.168 17.96C132.488 18.8133 132.928 19.5467 133.488 20.16C134.074 20.7467 134.741 21.2 135.488 21.52C136.261 21.84 137.088 22 137.968 22ZM157.194 29V0.999998H170.674C173.287 0.999998 175.541 1.42666 177.434 2.28C179.354 3.13333 180.834 4.36 181.874 5.96C182.914 7.53333 183.434 9.4 183.434 11.56C183.434 13.72 182.914 15.5867 181.874 17.16C180.834 18.7067 179.354 19.8933 177.434 20.72C175.541 21.5467 173.287 21.96 170.674 21.96H162.434L166.634 18.08V29H157.194ZM173.954 29L167.074 18.8H177.074L184.034 29H173.954ZM166.634 19.12L162.434 14.84H170.074C171.381 14.84 172.341 14.5467 172.954 13.96C173.594 13.3733 173.914 12.5733 173.914 11.56C173.914 10.5467 173.594 9.74667 172.954 9.16C172.341 8.57333 171.381 8.28 170.074 8.28H162.434L166.634 4V19.12ZM190.799 29.4C189.305 29.4 188.052 28.92 187.039 27.96C186.025 26.9733 185.519 25.72 185.519 24.2C185.519 22.6533 186.025 21.4133 187.039 20.48C188.052 19.5467 189.305 19.08 190.799 19.08C192.292 19.08 193.545 19.5467 194.559 20.48C195.572 21.4133 196.079 22.6533 196.079 24.2C196.079 25.72 195.572 26.9733 194.559 27.96C193.545 28.92 192.292 29.4 190.799 29.4ZM0.28 63V35H8.04L19.24 53.28H15.16L26.04 35H33.8L33.88 63H25.28L25.2 47.96H26.56L19.12 60.48H14.96L7.2 47.96H8.88V63H0.28ZM35.4041 63L47.6441 35H56.9241L69.1641 63H59.4041L50.3641 39.48H54.0441L45.0041 63H35.4041ZM42.6841 58.12L45.0841 51.32H57.9641L60.3641 58.12H42.6841ZM70.6706 63V35H78.4306L92.6706 52.04H89.0706V35H98.2706V63H90.5106L76.2706 45.96H79.8706V63H70.6706ZM102.819 63V35H112.259V63H102.819ZM113.763 63L126.003 35H135.283L147.523 63H137.763L128.723 39.48H132.403L123.363 63H113.763ZM121.043 58.12L123.443 51.32H136.323L138.723 58.12H121.043Z" fill="#4386F1"/>
</svg>
